<svg width="54" height="54" viewBox="0 0 54 54" fill="none" xmlns="http://www.w3.org/2000/svg">
<g filter="url(#filter0_d_1_1685)">
<rect x="15" y="8" width="24" height="24" rx="4" fill="#77469B"/>
<g clip-path="url(#clip0_1_1685)">
<path opacity="0.2" d="M20.7079 22.5302C21.01 23.0422 21.5031 23.4133 22.0787 23.5617C22.6543 23.7102 23.2654 23.6239 23.7774 23.3219L25.7079 22.183L23.4302 18.3219L21.4996 19.4608C20.9876 19.7628 20.6166 20.2559 20.4681 20.8315C20.3196 21.4071 20.4059 22.0182 20.7079 22.5302Z" fill="white"/>
<path d="M20.3218 22.758C19.9601 22.1434 19.857 21.4104 20.0351 20.7199C20.2132 20.0294 20.658 19.4377 21.2718 19.0747L23.1927 17.9415C23.3284 17.8505 25.6742 16.2344 26.8517 12.9048C26.9085 12.7439 27.01 12.6025 27.1444 12.4973C27.2787 12.392 27.4403 12.3274 27.6102 12.3108C27.78 12.2942 27.951 12.3265 28.1032 12.4037C28.2553 12.481 28.3823 12.6001 28.4691 12.747L33.0246 20.4692C33.1113 20.6162 33.1542 20.785 33.1483 20.9556C33.1425 21.1262 33.088 21.2915 32.9914 21.4322C32.8947 21.5729 32.76 21.6831 32.6029 21.7499C32.4458 21.8166 32.2729 21.8371 32.1045 21.809C29.3796 21.3554 27.2277 22.0341 26.3489 22.3873L27.252 23.9182C27.3272 24.0453 27.3699 24.1891 27.3761 24.3367C27.3824 24.4843 27.3521 24.6312 27.2879 24.7643L26.9657 25.4312C26.9035 25.5603 26.8112 25.6725 26.6967 25.7586C26.5822 25.8446 26.4488 25.902 26.3075 25.9259C26.1663 25.9497 26.0214 25.9394 25.885 25.8958C25.7485 25.8522 25.6245 25.7765 25.5234 25.6751L23.6923 23.8692C23.0912 24.1238 22.4181 24.1515 21.7982 23.9471C21.1783 23.7427 20.6536 23.3202 20.3218 22.758ZM32.2504 20.9214L27.6969 13.2025C26.6531 16.1546 24.797 17.8409 24.0224 18.4436L25.8868 21.6039C26.7891 21.22 29.1617 20.4104 32.2504 20.9214ZM26.1556 25.0373L26.1587 25.0426L26.4809 24.3757L25.5496 22.797L24.5071 23.4119L26.1556 25.0373ZM23.5496 22.9358L25.094 22.0247L23.2718 18.9358L21.7274 19.8469C21.3178 20.0886 21.0209 20.483 20.9022 20.9435C20.7834 21.404 20.8524 21.8929 21.094 22.3025C21.3357 22.7121 21.7301 23.0089 22.1907 23.1277C22.6512 23.2465 23.14 23.1775 23.5496 22.9358Z" fill="white"/>
</g>
</g>
<defs>
<filter id="filter0_d_1_1685" x="0" y="0" width="54" height="54" filterUnits="userSpaceOnUse" color-interpolation-filters="sRGB">
<feFlood flood-opacity="0" result="BackgroundImageFix"/>
<feColorMatrix in="SourceAlpha" type="matrix" values="0 0 0 0 0 0 0 0 0 0 0 0 0 0 0 0 0 0 127 0" result="hardAlpha"/>
<feOffset dy="7"/>
<feGaussianBlur stdDeviation="7.5"/>
<feColorMatrix type="matrix" values="0 0 0 0 0 0 0 0 0 0 0 0 0 0 0 0 0 0 0.15 0"/>
<feBlend mode="normal" in2="BackgroundImageFix" result="effect1_dropShadow_1_1685"/>
<feBlend mode="normal" in="SourceGraphic" in2="effect1_dropShadow_1_1685" result="shape"/>
</filter>
<clipPath id="clip0_1_1685">
<rect width="14.3453" height="14.3453" fill="white" transform="matrix(-0.861299 0.508098 0.508098 0.861299 28.4885 10.133)"/>
</clipPath>
</defs>
</svg>
