<svg width="20" height="20" viewBox="0 0 20 20" fill="none" xmlns="http://www.w3.org/2000/svg">
<path d="M16.6667 1.66669H1.66667V6.66669H16.6667V1.66669ZM15 5.00002H3.33334V3.33335H15V5.00002ZM13.3333 7.50002C12.2417 7.50002 11.2167 7.80835 10.3417 8.33335H7.08334C6.85 8.33335 6.66667 8.51669 6.66667 8.75002V10H8.55001C7.89167 10.9417 7.5 12.0834 7.5 13.3334C7.5 13.9167 7.59167 14.475 7.74167 15H4.16667V7.50002H2.50001V16.6667H8.55001C9.60834 18.175 11.35 19.1667 13.3333 19.1667C16.5583 19.1667 19.1667 16.5584 19.1667 13.3334C19.1667 10.1084 16.5583 7.50002 13.3333 7.50002ZM13.3333 17.5C11.0333 17.5 9.16667 15.6334 9.16667 13.3334C9.16667 11.0334 11.0333 9.16669 13.3333 9.16669C15.6333 9.16669 17.5 11.0334 17.5 13.3334C17.5 15.6334 15.6333 17.5 13.3333 17.5ZM13.75 13.5417L16.1333 14.95L15.5083 15.9667L12.5 14.1667V10H13.75V13.5417Z" fill="#C0C0C0"/>
</svg>
