<svg width="11" height="11" viewBox="0 0 11 11" fill="none" xmlns="http://www.w3.org/2000/svg">
<path d="M8.45837 9.25H2.20837C2.04261 9.25 1.88364 9.18415 1.76643 9.06694C1.64922 8.94973 1.58337 8.79076 1.58337 8.625V2.375C1.58337 2.20924 1.64922 2.05027 1.76643 1.93306C1.88364 1.81585 2.04261 1.75 2.20837 1.75H8.45837C8.62413 1.75 8.78311 1.81585 8.90032 1.93306C9.01753 2.05027 9.08337 2.20924 9.08337 2.375V8.625C9.08337 8.79076 9.01753 8.94973 8.90032 9.06694C8.78311 9.18415 8.62413 9.25 8.45837 9.25ZM6.89587 4.25C6.89587 4.16712 6.86295 4.08763 6.80435 4.02903C6.74574 3.97042 6.66625 3.9375 6.58337 3.9375H4.70837C4.62549 3.9375 4.54601 3.97042 4.4874 4.02903C4.4288 4.08763 4.39587 4.16712 4.39587 4.25C4.39587 4.33288 4.4288 4.41237 4.4874 4.47097C4.54601 4.52958 4.62549 4.5625 4.70837 4.5625H5.82908L3.86228 6.52891C3.80364 6.58754 3.7707 6.66707 3.7707 6.75C3.7707 6.83293 3.80364 6.91246 3.86228 6.97109C3.92092 7.02973 4.00045 7.06267 4.08337 7.06267C4.1663 7.06267 4.24583 7.02973 4.30447 6.97109L6.27087 5.0043V6.125C6.27087 6.20788 6.3038 6.28737 6.3624 6.34597C6.42101 6.40458 6.50049 6.4375 6.58337 6.4375C6.66625 6.4375 6.74574 6.40458 6.80435 6.34597C6.86295 6.28737 6.89587 6.20788 6.89587 6.125V4.25Z" fill="#009688"/>
</svg>
