<svg width="11" height="11" viewBox="0 0 11 11" fill="none" xmlns="http://www.w3.org/2000/svg">
<path d="M8.625 9.25H2.375C2.20924 9.25 2.05027 9.18415 1.93306 9.06694C1.81585 8.94973 1.75 8.79076 1.75 8.625V2.375C1.75 2.20924 1.81585 2.05027 1.93306 1.93306C2.05027 1.81585 2.20924 1.75 2.375 1.75H8.625C8.79076 1.75 8.94973 1.81585 9.06694 1.93306C9.18415 2.05027 9.25 2.20924 9.25 2.375V8.625C9.25 8.79076 9.18415 8.94973 9.06694 9.06694C8.94973 9.18415 8.79076 9.25 8.625 9.25ZM7.0625 4.25C7.0625 4.16712 7.02958 4.08763 6.97097 4.02903C6.91237 3.97042 6.83288 3.9375 6.75 3.9375H4.875C4.79212 3.9375 4.71263 3.97042 4.65403 4.02903C4.59542 4.08763 4.5625 4.16712 4.5625 4.25C4.5625 4.33288 4.59542 4.41237 4.65403 4.47097C4.71263 4.52958 4.79212 4.5625 4.875 4.5625H5.9957L4.02891 6.52891C3.97027 6.58754 3.93733 6.66707 3.93733 6.75C3.93733 6.83293 3.97027 6.91246 4.02891 6.97109C4.08754 7.02973 4.16707 7.06267 4.25 7.06267C4.33293 7.06267 4.41246 7.02973 4.47109 6.97109L6.4375 5.0043V6.125C6.4375 6.20788 6.47042 6.28737 6.52903 6.34597C6.58763 6.40458 6.66712 6.4375 6.75 6.4375C6.83288 6.4375 6.91237 6.40458 6.97097 6.34597C7.02958 6.28737 7.0625 6.20788 7.0625 6.125V4.25Z" fill="#009688"/>
</svg>
