<svg width="11" height="11" viewBox="0 0 11 11" fill="none" xmlns="http://www.w3.org/2000/svg">
<path d="M8.375 9.25H2.125C1.95924 9.25 1.80027 9.18415 1.68306 9.06694C1.56585 8.94973 1.5 8.79076 1.5 8.625V2.375C1.5 2.20924 1.56585 2.05027 1.68306 1.93306C1.80027 1.81585 1.95924 1.75 2.125 1.75H8.375C8.54076 1.75 8.69973 1.81585 8.81694 1.93306C8.93415 2.05027 9 2.20924 9 2.375V8.625C9 8.79076 8.93415 8.94973 8.81694 9.06694C8.69973 9.18415 8.54076 9.25 8.375 9.25ZM6.8125 4.25C6.8125 4.16712 6.77958 4.08763 6.72097 4.02903C6.66237 3.97042 6.58288 3.9375 6.5 3.9375H4.625C4.54212 3.9375 4.46263 3.97042 4.40403 4.02903C4.34542 4.08763 4.3125 4.16712 4.3125 4.25C4.3125 4.33288 4.34542 4.41237 4.40403 4.47097C4.46263 4.52958 4.54212 4.5625 4.625 4.5625H5.7457L3.77891 6.52891C3.72027 6.58754 3.68733 6.66707 3.68733 6.75C3.68733 6.83293 3.72027 6.91246 3.77891 6.97109C3.83754 7.02973 3.91707 7.06267 4 7.06267C4.08293 7.06267 4.16246 7.02973 4.22109 6.97109L6.1875 5.0043V6.125C6.1875 6.20788 6.22042 6.28737 6.27903 6.34597C6.33763 6.40458 6.41712 6.4375 6.5 6.4375C6.58288 6.4375 6.66237 6.40458 6.72097 6.34597C6.77958 6.28737 6.8125 6.20788 6.8125 6.125V4.25Z" fill="#009688"/>
</svg>
