<svg width="10" height="11" viewBox="0 0 10 11" fill="none" xmlns="http://www.w3.org/2000/svg">
<path d="M8.125 1.75H1.875C1.70924 1.75 1.55027 1.81585 1.43306 1.93306C1.31585 2.05027 1.25 2.20924 1.25 2.375V8.625C1.25 8.79076 1.31585 8.94973 1.43306 9.06694C1.55027 9.18415 1.70924 9.25 1.875 9.25H8.125C8.29076 9.25 8.44973 9.18415 8.56694 9.06694C8.68415 8.94973 8.75 8.79076 8.75 8.625V2.375C8.75 2.20924 8.68415 2.05027 8.56694 1.93306C8.44973 1.81585 8.29076 1.75 8.125 1.75ZM6.5625 6.75C6.5625 6.83288 6.52958 6.91237 6.47097 6.97097C6.41237 7.02958 6.33288 7.0625 6.25 7.0625H4.375C4.29212 7.0625 4.21263 7.02958 4.15403 6.97097C4.09542 6.91237 4.0625 6.83288 4.0625 6.75C4.0625 6.66712 4.09542 6.58763 4.15403 6.52903C4.21263 6.47042 4.29212 6.4375 4.375 6.4375H5.4957L3.52891 4.47109C3.47027 4.41246 3.43733 4.33293 3.43733 4.25C3.43733 4.16707 3.47027 4.08754 3.52891 4.02891C3.58754 3.97027 3.66707 3.93733 3.75 3.93733C3.83293 3.93733 3.91246 3.97027 3.97109 4.02891L5.9375 5.9957V4.875C5.9375 4.79212 5.97042 4.71263 6.02903 4.65403C6.08763 4.59542 6.16712 4.5625 6.25 4.5625C6.33288 4.5625 6.41237 4.59542 6.47097 4.65403C6.52958 4.71263 6.5625 4.79212 6.5625 4.875V6.75Z" fill="#FF0000"/>
</svg>
