<svg width="11" height="11" viewBox="0 0 11 11" fill="none" xmlns="http://www.w3.org/2000/svg">
<path d="M8.875 9.25H2.625C2.45924 9.25 2.30027 9.18415 2.18306 9.06694C2.06585 8.94973 2 8.79076 2 8.625V2.375C2 2.20924 2.06585 2.05027 2.18306 1.93306C2.30027 1.81585 2.45924 1.75 2.625 1.75H8.875C9.04076 1.75 9.19973 1.81585 9.31694 1.93306C9.43415 2.05027 9.5 2.20924 9.5 2.375V8.625C9.5 8.79076 9.43415 8.94973 9.31694 9.06694C9.19973 9.18415 9.04076 9.25 8.875 9.25ZM7.3125 4.25C7.3125 4.16712 7.27958 4.08763 7.22097 4.02903C7.16237 3.97042 7.08288 3.9375 7 3.9375H5.125C5.04212 3.9375 4.96263 3.97042 4.90403 4.02903C4.84542 4.08763 4.8125 4.16712 4.8125 4.25C4.8125 4.33288 4.84542 4.41237 4.90403 4.47097C4.96263 4.52958 5.04212 4.5625 5.125 4.5625H6.2457L4.27891 6.52891C4.22027 6.58754 4.18733 6.66707 4.18733 6.75C4.18733 6.83293 4.22027 6.91246 4.27891 6.97109C4.33754 7.02973 4.41707 7.06267 4.5 7.06267C4.58293 7.06267 4.66246 7.02973 4.72109 6.97109L6.6875 5.0043V6.125C6.6875 6.20788 6.72042 6.28737 6.77903 6.34597C6.83763 6.40458 6.91712 6.4375 7 6.4375C7.08288 6.4375 7.16237 6.40458 7.22097 6.34597C7.27958 6.28737 7.3125 6.20788 7.3125 6.125V4.25Z" fill="#00C165"/>
</svg>
