<svg width="11" height="11" viewBox="0 0 11 11" fill="none" xmlns="http://www.w3.org/2000/svg">
<path d="M8.79169 9.25H2.54169C2.37593 9.25 2.21696 9.18415 2.09975 9.06694C1.98254 8.94973 1.91669 8.79076 1.91669 8.625V2.375C1.91669 2.20924 1.98254 2.05027 2.09975 1.93306C2.21696 1.81585 2.37593 1.75 2.54169 1.75H8.79169C8.95745 1.75 9.11642 1.81585 9.23363 1.93306C9.35084 2.05027 9.41669 2.20924 9.41669 2.375V8.625C9.41669 8.79076 9.35084 8.94973 9.23363 9.06694C9.11642 9.18415 8.95745 9.25 8.79169 9.25ZM7.22919 4.25C7.22919 4.16712 7.19626 4.08763 7.13766 4.02903C7.07905 3.97042 6.99957 3.9375 6.91669 3.9375H5.04169C4.95881 3.9375 4.87932 3.97042 4.82072 4.02903C4.76211 4.08763 4.72919 4.16712 4.72919 4.25C4.72919 4.33288 4.76211 4.41237 4.82072 4.47097C4.87932 4.52958 4.95881 4.5625 5.04169 4.5625H6.16239L4.19559 6.52891C4.13696 6.58754 4.10401 6.66707 4.10401 6.75C4.10401 6.83293 4.13696 6.91246 4.19559 6.97109C4.25423 7.02973 4.33376 7.06267 4.41669 7.06267C4.49961 7.06267 4.57914 7.02973 4.63778 6.97109L6.60419 5.0043V6.125C6.60419 6.20788 6.63711 6.28737 6.69572 6.34597C6.75432 6.40458 6.83381 6.4375 6.91669 6.4375C6.99957 6.4375 7.07905 6.40458 7.13766 6.34597C7.19626 6.28737 7.22919 6.20788 7.22919 6.125V4.25Z" fill="#009688"/>
</svg>
