<svg width="19" height="19" viewBox="0 0 19 19" fill="none" xmlns="http://www.w3.org/2000/svg">
<path d="M14.0076 15.7657C14.3312 15.7656 14.5938 16.0278 14.5938 16.3514C14.5938 16.675 14.3316 16.9374 14.008 16.9375L3.85173 16.9405C3.52813 16.9406 3.26562 16.6783 3.26562 16.3547C3.26562 16.0311 3.52779 15.7687 3.85139 15.7686L14.0076 15.7657ZM8.85018 1.32176L8.92969 1.31641C9.22632 1.31641 9.47148 1.53684 9.51028 1.82284L9.51562 1.90234L9.51484 12.5937L12.4225 9.68724C12.6306 9.47924 12.9561 9.46036 13.1854 9.63059L13.2512 9.68733C13.4592 9.89537 13.478 10.2209 13.3078 10.4503L13.2511 10.516L9.34666 14.4196C9.13873 14.6275 8.81343 14.6464 8.58406 14.4765L8.51834 14.4198L4.6094 10.5162C4.38042 10.2875 4.38017 9.91655 4.60883 9.68757C4.81671 9.47941 5.14222 9.46027 5.37172 9.63031L5.43747 9.687L8.34297 12.5883L8.34375 1.90234C8.34375 1.60571 8.56418 1.36055 8.85018 1.32176L8.92969 1.31641L8.85018 1.32176Z" fill="#212121"/>
</svg>
