<svg width="11" height="11" viewBox="0 0 11 11" fill="none" xmlns="http://www.w3.org/2000/svg">
<path d="M8.625 1.75H2.375C2.20924 1.75 2.05027 1.81585 1.93306 1.93306C1.81585 2.05027 1.75 2.20924 1.75 2.375V8.625C1.75 8.79076 1.81585 8.94973 1.93306 9.06694C2.05027 9.18415 2.20924 9.25 2.375 9.25H8.625C8.79076 9.25 8.94973 9.18415 9.06694 9.06694C9.18415 8.94973 9.25 8.79076 9.25 8.625V2.375C9.25 2.20924 9.18415 2.05027 9.06694 1.93306C8.94973 1.81585 8.79076 1.75 8.625 1.75ZM7.0625 6.75C7.0625 6.83288 7.02958 6.91237 6.97097 6.97097C6.91237 7.02958 6.83288 7.0625 6.75 7.0625H4.875C4.79212 7.0625 4.71263 7.02958 4.65403 6.97097C4.59542 6.91237 4.5625 6.83288 4.5625 6.75C4.5625 6.66712 4.59542 6.58763 4.65403 6.52903C4.71263 6.47042 4.79212 6.4375 4.875 6.4375H5.9957L4.02891 4.47109C3.97027 4.41246 3.93733 4.33293 3.93733 4.25C3.93733 4.16707 3.97027 4.08754 4.02891 4.02891C4.08754 3.97027 4.16707 3.93733 4.25 3.93733C4.33293 3.93733 4.41246 3.97027 4.47109 4.02891L6.4375 5.9957V4.875C6.4375 4.79212 6.47042 4.71263 6.52903 4.65403C6.58763 4.59542 6.66712 4.5625 6.75 4.5625C6.83288 4.5625 6.91237 4.59542 6.97097 4.65403C7.02958 4.71263 7.0625 4.79212 7.0625 4.875V6.75Z" fill="#FF0000"/>
</svg>
