<svg width="20" height="20" viewBox="0 0 20 20" fill="none" xmlns="http://www.w3.org/2000/svg">
<path d="M9.99999 1.66669C8.90564 1.66669 7.82201 1.88224 6.81096 2.30102C5.79991 2.71981 4.88125 3.33364 4.10743 4.10746C2.54463 5.67027 1.66666 7.78988 1.66666 10C1.66666 12.2102 2.54463 14.3298 4.10743 15.8926C4.88125 16.6664 5.79991 17.2802 6.81096 17.699C7.82201 18.1178 8.90564 18.3334 9.99999 18.3334C12.2101 18.3334 14.3297 17.4554 15.8925 15.8926C17.4553 14.3298 18.3333 12.2102 18.3333 10H16.6667C16.6667 11.7681 15.9643 13.4638 14.714 14.7141C13.4638 15.9643 11.7681 16.6667 9.99999 16.6667C8.23188 16.6667 6.53619 15.9643 5.28594 14.7141C4.0357 13.4638 3.33332 11.7681 3.33332 10C3.33332 8.23191 4.0357 6.53622 5.28594 5.28598C6.53619 4.03573 8.23188 3.33335 9.99999 3.33335V1.66669ZM15.65 2.50002C15.5083 2.50002 15.3583 2.55835 15.25 2.66669L14.2333 3.67502L16.3167 5.75835L17.3333 4.75002C17.55 4.53335 17.55 4.16669 17.3333 3.95835L16.0417 2.66669C15.9333 2.55835 15.7917 2.50002 15.65 2.50002ZM13.6417 4.26669L7.49999 10.4167V12.5H9.58332L15.725 6.35002L13.6417 4.26669Z" fill="black"/>
</svg>
