<svg width="16" height="17" viewBox="0 0 16 17" fill="none" xmlns="http://www.w3.org/2000/svg">
<path d="M8.00001 1.83333C6.68147 1.83333 5.39254 2.22432 4.29621 2.95686C3.19988 3.68941 2.3454 4.7306 1.84082 5.94877C1.33623 7.16695 1.20421 8.50739 1.46144 9.8006C1.71868 11.0938 2.35362 12.2817 3.28597 13.214C4.21832 14.1464 5.4062 14.7813 6.69941 15.0386C7.99262 15.2958 9.33306 15.1638 10.5512 14.6592C11.7694 14.1546 12.8106 13.3001 13.5431 12.2038C14.2757 11.1075 14.6667 9.81854 14.6667 8.5C14.6667 7.62452 14.4942 6.75761 14.1592 5.94877C13.8242 5.13993 13.3331 4.40501 12.7141 3.78595C12.095 3.16689 11.3601 2.67583 10.5512 2.3408C9.7424 2.00577 8.87549 1.83333 8.00001 1.83333V1.83333ZM8.00001 13.8333C6.94518 13.8333 5.91403 13.5205 5.03697 12.9345C4.15991 12.3485 3.47632 11.5155 3.07266 10.541C2.66899 9.56643 2.56337 8.49408 2.76916 7.45951C2.97495 6.42495 3.4829 5.47464 4.22878 4.72876C4.97466 3.98288 5.92497 3.47493 6.95953 3.26914C7.9941 3.06335 9.06645 3.16897 10.041 3.57264C11.0155 3.9763 11.8485 4.65989 12.4345 5.53695C13.0206 6.41402 13.3333 7.44516 13.3333 8.5C13.3333 9.91448 12.7714 11.271 11.7712 12.2712C10.7711 13.2714 9.4145 13.8333 8.00001 13.8333V13.8333Z" fill="#0B1C2C"/>
<path d="M8.00001 6.49999C8.3682 6.49999 8.66668 6.20151 8.66668 5.83332C8.66668 5.46513 8.3682 5.16666 8.00001 5.16666C7.63182 5.16666 7.33334 5.46513 7.33334 5.83332C7.33334 6.20151 7.63182 6.49999 8.00001 6.49999Z" fill="#0B1C2C"/>
<path d="M8.00001 7.16666C7.8232 7.16666 7.65363 7.23689 7.52861 7.36192C7.40358 7.48694 7.33334 7.65651 7.33334 7.83332V11.1667C7.33334 11.3435 7.40358 11.513 7.52861 11.6381C7.65363 11.7631 7.8232 11.8333 8.00001 11.8333C8.17682 11.8333 8.34639 11.7631 8.47141 11.6381C8.59644 11.513 8.66668 11.3435 8.66668 11.1667V7.83332C8.66668 7.65651 8.59644 7.48694 8.47141 7.36192C8.34639 7.23689 8.17682 7.16666 8.00001 7.16666Z" fill="#0B1C2C"/>
</svg>
