<svg width="32" height="32" viewBox="0 0 32 32" fill="none" xmlns="http://www.w3.org/2000/svg">
<path fill-rule="evenodd" clip-rule="evenodd" d="M15.7571 9.00426C21.137 8.82432 24.3037 14.3926 24.8795 15.5023C24.9584 15.6543 25 15.8267 25 16.0021C25 16.1776 24.9584 16.35 24.8795 16.502C24.1058 18.0015 21.2179 22.86 16.2429 23H16.018C10.7191 23 7.6873 17.5917 7.12053 16.502C7.04157 16.35 7 16.1776 7 16.0021C7 15.8267 7.04157 15.6543 7.12053 15.5023C7.90322 14.0027 10.7821 9.14422 15.7571 9.00426ZM9.00078 16.0021C9.79247 17.4117 12.3205 21.1006 16.1979 21.0006C19.7965 20.9006 22.1176 17.6116 23.0442 16.0021C22.2435 14.5926 19.7065 10.8937 15.8471 11.0037C12.2485 11.1036 9.90042 14.3926 9.00078 16.0021ZM14.2507 13.0929C14.7685 12.7084 15.3773 12.5032 16.0001 12.5032C16.8352 12.5032 17.6361 12.8719 18.2266 13.528C18.8171 14.1842 19.1488 15.0742 19.1488 16.0022C19.1488 16.6942 18.9641 17.3707 18.6182 17.9461C18.2722 18.5215 17.7804 18.9699 17.205 19.2347C16.6297 19.4996 15.9966 19.5689 15.3858 19.4339C14.775 19.2989 14.2139 18.9656 13.7736 18.4763C13.3332 17.9869 13.0333 17.3635 12.9118 16.6848C12.7903 16.006 12.8527 15.3025 13.091 14.6632C13.3293 14.0238 13.7329 13.4774 14.2507 13.0929ZM15.2503 17.249C15.4723 17.4138 15.7332 17.5017 16.0001 17.5017C16.358 17.5017 16.7012 17.3437 16.9543 17.0625C17.2074 16.7813 17.3495 16.3999 17.3495 16.0022C17.3495 15.7056 17.2704 15.4157 17.1221 15.1691C16.9738 14.9225 16.7631 14.7303 16.5165 14.6168C16.2699 14.5033 15.9986 14.4736 15.7368 14.5314C15.475 14.5893 15.2346 14.7321 15.0459 14.9418C14.8571 15.1515 14.7286 15.4187 14.6765 15.7096C14.6245 16.0005 14.6512 16.302 14.7533 16.576C14.8555 16.85 15.0284 17.0842 15.2503 17.249Z" fill="#0B1C2C"/>
</svg>
