<svg width="16" height="17" viewBox="0 0 16 17" fill="none" xmlns="http://www.w3.org/2000/svg">
<path d="M8 1.83333C6.68146 1.83333 5.39252 2.22432 4.2962 2.95686C3.19987 3.68941 2.34539 4.7306 1.8408 5.94877C1.33622 7.16695 1.20419 8.50739 1.46143 9.8006C1.71866 11.0938 2.3536 12.2817 3.28595 13.214C4.2183 14.1464 5.40619 14.7813 6.6994 15.0386C7.9926 15.2958 9.33305 15.1638 10.5512 14.6592C11.7694 14.1546 12.8106 13.3001 13.5431 12.2038C14.2757 11.1075 14.6667 9.81854 14.6667 8.5C14.6667 7.62452 14.4942 6.75761 14.1592 5.94877C13.8242 5.13993 13.3331 4.40501 12.714 3.78595C12.095 3.16689 11.3601 2.67583 10.5512 2.3408C9.74238 2.00577 8.87548 1.83333 8 1.83333V1.83333ZM8 13.8333C6.94516 13.8333 5.91402 13.5205 5.03696 12.9345C4.15989 12.3485 3.47631 11.5155 3.07264 10.541C2.66897 9.56643 2.56336 8.49408 2.76914 7.45951C2.97493 6.42495 3.48288 5.47464 4.22876 4.72876C4.97464 3.98288 5.92495 3.47493 6.95952 3.26914C7.99408 3.06335 9.06644 3.16897 10.041 3.57264C11.0155 3.9763 11.8485 4.65989 12.4345 5.53695C13.0205 6.41402 13.3333 7.44516 13.3333 8.5C13.3333 9.91448 12.7714 11.271 11.7712 12.2712C10.771 13.2714 9.41449 13.8333 8 13.8333V13.8333Z" fill="#0B1C2C"/>
<path d="M7.99999 6.49999C8.36818 6.49999 8.66666 6.20151 8.66666 5.83332C8.66666 5.46513 8.36818 5.16666 7.99999 5.16666C7.63181 5.16666 7.33333 5.46513 7.33333 5.83332C7.33333 6.20151 7.63181 6.49999 7.99999 6.49999Z" fill="#0B1C2C"/>
<path d="M7.99999 7.16666C7.82318 7.16666 7.65361 7.23689 7.52859 7.36192C7.40357 7.48694 7.33333 7.65651 7.33333 7.83332V11.1667C7.33333 11.3435 7.40357 11.513 7.52859 11.6381C7.65361 11.7631 7.82318 11.8333 7.99999 11.8333C8.17681 11.8333 8.34637 11.7631 8.4714 11.6381C8.59642 11.513 8.66666 11.3435 8.66666 11.1667V7.83332C8.66666 7.65651 8.59642 7.48694 8.4714 7.36192C8.34637 7.23689 8.17681 7.16666 7.99999 7.16666Z" fill="#0B1C2C"/>
</svg>
