<svg width="24" height="24" viewBox="0 0 24 24" fill="none" xmlns="http://www.w3.org/2000/svg">
<path d="M11.5 9C10.6716 9 10 8.32843 10 7.5C10 6.67157 10.6716 6 11.5 6C12.3284 6 13 6.67157 13 7.5C13 8.32843 12.3284 9 11.5 9ZM11.5 13.5C10.6716 13.5 10 12.8284 10 12C10 11.1716 10.6716 10.5 11.5 10.5C12.3284 10.5 13 11.1716 13 12C13 12.8284 12.3284 13.5 11.5 13.5ZM11.5 18C10.6716 18 10 17.3284 10 16.5C10 15.6716 10.6716 15 11.5 15C12.3284 15 13 15.6716 13 16.5C13 17.3284 12.3284 18 11.5 18Z" fill="black"/>
</svg>
