<svg width="16" height="16" viewBox="0 0 16 16" fill="none" xmlns="http://www.w3.org/2000/svg">
<path d="M7.99088 11.0041C7.85962 11.0049 7.72951 10.9796 7.60799 10.9299C7.48647 10.8801 7.37595 10.8068 7.28276 10.7141L3.29332 6.71409C3.20032 6.62085 3.12656 6.51016 3.07623 6.38834C3.0259 6.26652 3 6.13595 3 6.00409C3 5.87223 3.0259 5.74166 3.07623 5.61984C3.12656 5.49802 3.20032 5.38733 3.29332 5.29409C3.38631 5.20085 3.49671 5.12689 3.61821 5.07643C3.73971 5.02597 3.86993 5 4.00144 5C4.13295 5 4.26318 5.02597 4.38468 5.07643C4.50618 5.12689 4.61658 5.20085 4.70957 5.29409L7.99088 8.60409L11.2822 5.42409C11.3739 5.3218 11.4857 5.23959 11.6106 5.18261C11.7355 5.12562 11.8708 5.09508 12.008 5.0929C12.1451 5.09072 12.2813 5.11695 12.4079 5.16994C12.5345 5.22293 12.6489 5.30155 12.7438 5.40087C12.8388 5.5002 12.9122 5.61809 12.9597 5.74719C13.0071 5.87628 13.0274 6.0138 13.0194 6.15113C13.0114 6.28847 12.9752 6.42267 12.9131 6.54535C12.851 6.66802 12.7644 6.77653 12.6585 6.86409L8.66909 10.7241C8.4867 10.9004 8.24422 11.0005 7.99088 11.0041Z" fill="#A1A2A1"/>
</svg>
