<svg width="16" height="17" viewBox="0 0 16 17" fill="none" xmlns="http://www.w3.org/2000/svg">
<path d="M8.00004 1.83333C6.6815 1.83333 5.39257 2.22432 4.29624 2.95686C3.19991 3.68941 2.34543 4.7306 1.84085 5.94877C1.33626 7.16695 1.20424 8.50739 1.46148 9.8006C1.71871 11.0938 2.35365 12.2817 3.286 13.214C4.21835 14.1464 5.40623 14.7813 6.69944 15.0386C7.99265 15.2958 9.33309 15.1638 10.5513 14.6592C11.7694 14.1546 12.8106 13.3001 13.5432 12.2038C14.2757 11.1075 14.6667 9.81854 14.6667 8.5C14.6667 7.62452 14.4943 6.75761 14.1592 5.94877C13.8242 5.13993 13.3331 4.40501 12.7141 3.78595C12.095 3.16689 11.3601 2.67583 10.5513 2.3408C9.74243 2.00577 8.87552 1.83333 8.00004 1.83333V1.83333ZM8.00004 13.8333C6.94521 13.8333 5.91406 13.5205 5.037 12.9345C4.15994 12.3485 3.47635 11.5155 3.07269 10.541C2.66902 9.56643 2.5634 8.49408 2.76919 7.45951C2.97498 6.42495 3.48293 5.47464 4.22881 4.72876C4.97469 3.98288 5.925 3.47493 6.95956 3.26914C7.99413 3.06335 9.06648 3.16897 10.041 3.57264C11.0156 3.9763 11.8485 4.65989 12.4345 5.53695C13.0206 6.41402 13.3334 7.44516 13.3334 8.5C13.3334 9.91448 12.7715 11.271 11.7713 12.2712C10.7711 13.2714 9.41453 13.8333 8.00004 13.8333V13.8333Z" fill="#0B1C2C"/>
<path d="M8.00004 6.49999C8.36823 6.49999 8.66671 6.20151 8.66671 5.83332C8.66671 5.46513 8.36823 5.16666 8.00004 5.16666C7.63185 5.16666 7.33337 5.46513 7.33337 5.83332C7.33337 6.20151 7.63185 6.49999 8.00004 6.49999Z" fill="#0B1C2C"/>
<path d="M8.00004 7.16666C7.82323 7.16666 7.65366 7.23689 7.52864 7.36192C7.40361 7.48694 7.33337 7.65651 7.33337 7.83332V11.1667C7.33337 11.3435 7.40361 11.513 7.52864 11.6381C7.65366 11.7631 7.82323 11.8333 8.00004 11.8333C8.17685 11.8333 8.34642 11.7631 8.47144 11.6381C8.59647 11.513 8.66671 11.3435 8.66671 11.1667V7.83332C8.66671 7.65651 8.59647 7.48694 8.47144 7.36192C8.34642 7.23689 8.17685 7.16666 8.00004 7.16666Z" fill="#0B1C2C"/>
</svg>
