<svg width="16" height="17" viewBox="0 0 16 17" fill="none" xmlns="http://www.w3.org/2000/svg">
<path d="M7.99455 11.5041C7.86329 11.5049 7.73317 11.4796 7.61165 11.4299C7.49014 11.3801 7.37961 11.3068 7.28642 11.2141L3.29698 7.21409C3.20399 7.12085 3.13022 7.01016 3.07989 6.88834C3.02957 6.76652 3.00366 6.63595 3.00366 6.50409C3.00366 6.37223 3.02957 6.24166 3.07989 6.11984C3.13022 5.99802 3.20399 5.88733 3.29698 5.79409C3.38997 5.70085 3.50037 5.62689 3.62187 5.57643C3.74337 5.52597 3.87359 5.5 4.0051 5.5C4.13661 5.5 4.26684 5.52597 4.38834 5.57643C4.50984 5.62689 4.62024 5.70085 4.71323 5.79409L7.99455 9.10409L11.2858 5.92409C11.3776 5.8218 11.4894 5.73959 11.6143 5.68261C11.7392 5.62562 11.8744 5.59508 12.0116 5.5929C12.1488 5.59072 12.285 5.61695 12.4116 5.66994C12.5382 5.72293 12.6526 5.80155 12.7475 5.90087C12.8424 6.0002 12.9159 6.11809 12.9633 6.24719C13.0107 6.37628 13.0311 6.5138 13.0231 6.65113C13.0151 6.78847 12.9789 6.92267 12.9168 7.04535C12.8547 7.16802 12.768 7.27653 12.6622 7.36409L8.67275 11.2241C8.49036 11.4004 8.24788 11.5005 7.99455 11.5041Z" fill="#A1A2A1"/>
</svg>
