<svg width="132" height="22" viewBox="0 0 132 22" fill="none" xmlns="http://www.w3.org/2000/svg">
<g clip-path="url(#clip0_1_1507)">
<path d="M23.1872 7.9828L17.4408 14.5386L11.631 8.06345L-1.52588e-05 21.3392H9.01275C10.5883 21.3392 12.0861 20.6594 13.1231 19.4756L17.4552 14.5328L21.9342 19.5246C22.9712 20.6796 24.4517 21.3392 26.0042 21.3392H35.1754L23.1901 7.9828H23.1872Z" fill="#77469B"/>
<path d="M55.6752 18.3666L55.0156 16.4224H47.3278L46.6884 18.3436C46.0921 20.1323 44.4186 21.3392 42.5348 21.3392H41.2819L48.938 0.810602H53.4083L61.0356 21.3392H59.823C57.9479 21.3392 56.2801 20.1438 55.6752 18.3666ZM48.5491 12.8161H53.7943L51.1732 5.03903L48.552 12.8161H48.5491Z" fill="#1D252D"/>
<path d="M76.4371 13.7119V21.3392H72.5342V13.9193C72.5342 11.7446 71.2236 10.7624 69.8813 10.7624C68.5391 10.7624 66.7532 11.5084 66.7532 14.0403V21.3392H62.8503V10.8977C62.8503 8.97939 64.4057 7.42686 66.3212 7.42686H66.7532V9.78015C67.3495 7.90213 69.553 7.06969 70.924 7.06969C74.5591 7.06969 76.4659 9.54395 76.4371 13.7148V13.7119Z" fill="#1D252D"/>
<path d="M90.649 7.424H91.1416C93.0253 7.424 94.552 8.95061 94.552 10.8344V21.3363H90.649V19.3402C89.7244 20.7689 87.9386 21.6935 86.0605 21.6935C82.2181 21.6935 79.3579 18.7152 79.3579 14.3946C79.3579 10.074 82.1576 7.06395 86.1498 7.06395C87.9386 7.06395 89.7244 7.83877 90.649 9.27033V7.424ZM90.5309 14.3974C90.5309 12.2832 88.8315 10.7019 86.8959 10.7019C84.9602 10.7019 83.3501 12.3696 83.3501 14.3974C83.3501 16.4252 84.8709 18.0613 86.9247 18.0613C88.9784 18.0613 90.5309 16.3936 90.5309 14.3974Z" fill="#1D252D"/>
<path d="M108.643 7.51329L107.75 11.2376C106.915 10.7912 106.229 10.7307 105.754 10.7307C103.758 10.7307 102.387 12.6087 102.387 16.5693V21.3363C100.232 21.3363 98.4837 19.5879 98.4837 17.4334V7.424H102.358V10.4023C103.133 8.07785 104.711 7.06395 106.439 7.06395C107.185 7.06395 108.018 7.18204 108.643 7.51041V7.51329Z" fill="#1D252D"/>
<path d="M110.193 2.62812C110.193 1.31754 111.325 0.30364 112.667 0.30364C114.009 0.30364 115.138 1.31754 115.138 2.62812C115.138 3.9387 114.035 4.98141 112.667 4.98141C111.299 4.98141 110.193 3.9387 110.193 2.62812ZM110.728 17.4363V7.42399C112.883 7.42399 114.631 9.17239 114.631 11.3269V21.3392C112.477 21.3392 110.728 19.5908 110.728 17.4363Z" fill="#1D252D"/>
<path d="M132 21.3392H130.004C128.4 21.3392 126.896 20.55 125.983 19.2308L124.373 16.9005L123.007 18.839C121.901 20.4088 120.101 21.3421 118.183 21.3421H116.656L122.169 13.8041L117.581 7.42688H119.623C121.236 7.42688 122.742 8.22187 123.656 9.55261L124.404 10.6472C125.744 8.63664 128.002 7.42976 130.416 7.42976H131.136L126.547 13.807L132 21.345V21.3392Z" fill="#1D252D"/>
<path d="M17.4178 10.1949L21.2516 5.8225L17.3803 1.50767L13.5465 5.88011L17.4178 10.1949Z" fill="#F26E77"/>
</g>
<defs>
<clipPath id="clip0_1_1507">
<rect width="132" height="21.3927" fill="white" transform="translate(0 0.30364)"/>
</clipPath>
</defs>
</svg>
