<svg width="10" height="10" viewBox="0 0 10 10" fill="none" xmlns="http://www.w3.org/2000/svg">
<g clip-path="url(#clip0_1_1013)">
<path d="M3.33333 1.25V2.5C3.33333 2.72101 3.24554 2.93298 3.08926 3.08926C2.93298 3.24554 2.72101 3.33333 2.5 3.33333H1.25M8.75 3.33333H7.5C7.27899 3.33333 7.06703 3.24554 6.91074 3.08926C6.75446 2.93298 6.66667 2.72101 6.66667 2.5V1.25M6.66667 8.75V7.5C6.66667 7.27899 6.75446 7.06703 6.91074 6.91074C7.06703 6.75446 7.27899 6.66667 7.5 6.66667H8.75M1.25 6.66667H2.5C2.72101 6.66667 2.93298 6.75446 3.08926 6.91074C3.24554 7.06703 3.33333 7.27899 3.33333 7.5V8.75" stroke="#475467" stroke-width="0.833333" stroke-linecap="round" stroke-linejoin="round"/>
</g>
<defs>
<clipPath id="clip0_1_1013">
<rect width="10" height="10" fill="white"/>
</clipPath>
</defs>
</svg>
