<svg width="20" height="20" viewBox="0 0 20 20" fill="none" xmlns="http://www.w3.org/2000/svg">
<path d="M8.33334 13.75L13.3333 10L8.33334 6.25002M18.3333 10C18.3333 5.38335 14.6167 1.66669 10 1.66669C9.025 1.66669 8.08334 1.82502 7.18334 2.13335L7.76667 3.75002C8.475 3.46669 9.21667 3.30835 10 3.30835C13.675 3.30835 16.6917 6.32502 16.6917 10C16.6917 13.675 13.675 16.6917 10 16.6917C6.32501 16.6917 3.30834 13.675 3.30834 10C3.30834 9.21669 3.46667 8.43335 3.75001 7.73335L2.13334 7.18335C1.82501 8.08335 1.66667 9.02502 1.66667 10C1.66667 14.6167 5.38334 18.3334 10 18.3334C14.6167 18.3334 18.3333 14.6167 18.3333 10ZM4.55834 3.30835C5.26667 3.30835 5.83334 3.90002 5.83334 4.55835C5.83334 5.26669 5.26667 5.83335 4.55834 5.83335C3.9 5.83335 3.30834 5.26669 3.30834 4.55835C3.30834 3.90002 3.9 3.30835 4.55834 3.30835Z" fill="#009688"/>
</svg>
