<svg width="70" height="70" viewBox="0 0 70 70" fill="none" xmlns="http://www.w3.org/2000/svg">
<g filter="url(#filter0_d_1_3707)">
<rect x="15" y="8" width="40" height="40" rx="4" fill="url(#paint0_linear_1_3707)"/>
<g clip-path="url(#clip0_1_3707)">
<path d="M45.1562 35.3125H44.3438V19.0625C44.3437 18.847 44.2581 18.6404 44.1058 18.488C43.9534 18.3356 43.7467 18.25 43.5312 18.25H37.8438C37.6283 18.25 37.4216 18.3356 37.2692 18.488C37.1169 18.6404 37.0313 18.847 37.0312 19.0625V23.125H32.1562C31.9408 23.125 31.7341 23.2106 31.5817 23.363C31.4294 23.5154 31.3438 23.722 31.3438 23.9375V28H26.4688C26.2533 28 26.0466 28.0856 25.8942 28.238C25.7419 28.3904 25.6563 28.597 25.6562 28.8125V35.3125H24.8438C24.6283 35.3125 24.4216 35.3981 24.2692 35.5505C24.1169 35.7028 24.0312 35.9095 24.0312 36.125C24.0312 36.3405 24.1169 36.5472 24.2692 36.6995C24.4216 36.8519 24.6283 36.9375 24.8438 36.9375H45.1562C45.3717 36.9375 45.5784 36.8519 45.7308 36.6995C45.8831 36.5472 45.9688 36.3405 45.9688 36.125C45.9688 35.9095 45.8831 35.7028 45.7308 35.5505C45.5784 35.3981 45.3717 35.3125 45.1562 35.3125ZM32.9688 24.75H37.0312V35.3125H32.9688V24.75ZM27.2812 29.625H31.3438V35.3125H27.2812V29.625Z" fill="white"/>
</g>
</g>
<defs>
<filter id="filter0_d_1_3707" x="0" y="0" width="70" height="70" filterUnits="userSpaceOnUse" color-interpolation-filters="sRGB">
<feFlood flood-opacity="0" result="BackgroundImageFix"/>
<feColorMatrix in="SourceAlpha" type="matrix" values="0 0 0 0 0 0 0 0 0 0 0 0 0 0 0 0 0 0 127 0" result="hardAlpha"/>
<feOffset dy="7"/>
<feGaussianBlur stdDeviation="7.5"/>
<feColorMatrix type="matrix" values="0 0 0 0 0 0 0 0 0 0 0 0 0 0 0 0 0 0 0.15 0"/>
<feBlend mode="normal" in2="BackgroundImageFix" result="effect1_dropShadow_1_3707"/>
<feBlend mode="normal" in="SourceGraphic" in2="effect1_dropShadow_1_3707" result="shape"/>
</filter>
<linearGradient id="paint0_linear_1_3707" x1="15" y1="8" x2="55" y2="48" gradientUnits="userSpaceOnUse">
<stop stop-color="#3C81FF"/>
<stop offset="1" stop-color="#0D4CBC"/>
</linearGradient>
<clipPath id="clip0_1_3707">
<rect width="26" height="26" fill="white" transform="translate(22 15)"/>
</clipPath>
</defs>
</svg>
