<svg width="32" height="18" viewBox="0 0 32 18" fill="none" xmlns="http://www.w3.org/2000/svg">
<path fill-rule="evenodd" clip-rule="evenodd" d="M14.0014 0C14.4792 0 14.9101 0.179914 15.294 0.539749C15.678 0.899583 15.8699 1.32217 15.8699 1.80753C15.8699 2.22594 15.7164 2.61088 15.4092 2.96234L10.3411 8.91213L15.5628 15.0377C15.887 15.4059 16.0491 15.7908 16.0491 16.1925C16.0491 16.6778 15.8571 17.1004 15.4732 17.4602C15.0892 17.8201 14.6498 18 14.155 18C13.643 18 13.2079 17.7908 12.8495 17.3724L8.03735 11.5983L3.17399 17.3724C2.79857 17.7908 2.36342 18 1.86855 18C1.39075 18 0.959873 17.8201 0.575921 17.4602C0.191969 17.1004 0 16.6778 0 16.1925C0 15.7741 0.153575 15.3891 0.460737 15.0377L5.70805 8.91213L0.639918 2.96234C0.315692 2.59414 0.153576 2.20921 0.153576 1.80753C0.153576 1.32217 0.345553 0.899583 0.729505 0.539749C1.11346 0.179914 1.54433 0 2.02214 0C2.53407 0 2.97774 0.217571 3.35316 0.65272L8.03735 6.20084L12.6703 0.65272C13.0458 0.217571 13.4894 0 14.0014 0ZM25.28 0.150628C27.2424 0.150628 28.7697 0.635978 29.8618 1.60669C30.9539 2.57741 31.5 3.93305 31.5 5.67364C31.5 7.41423 30.9539 8.76987 29.8618 9.74058C28.7697 10.7113 27.2424 11.1967 25.28 11.1967H20.9798V16.0418C20.9798 16.6444 20.8006 17.1213 20.4422 17.4728C20.0839 17.8243 19.5976 18 18.9832 18C18.3689 18 17.8826 17.8243 17.5242 17.4728C17.1659 17.1213 16.9867 16.6444 16.9867 16.0418V1.98326C16.9867 1.39749 17.1488 0.945608 17.473 0.627615C17.7972 0.309622 18.258 0.150628 18.8552 0.150628H25.28ZM24.7681 3.13808H20.9798V8.23431H24.7681C26.7646 8.23431 27.7629 7.38913 27.7629 5.69874C27.7629 3.99162 26.7646 3.13808 24.7681 3.13808Z" fill="url(#paint0_linear_1_1506)"/>
<defs>
<linearGradient id="paint0_linear_1_1506" x1="20.1887" y1="12.69" x2="15.4037" y2="3.02574" gradientUnits="userSpaceOnUse">
<stop stop-color="#FF00FF"/>
<stop offset="1" stop-color="#00D8EF"/>
</linearGradient>
</defs>
</svg>
